<svg width="34" height="34" viewBox="0 0 34 34" fill="none" xmlns="http://www.w3.org/2000/svg">
<path d="M11.3335 11.3333L11.3335 9.91665C11.3335 6.78704 13.8705 4.24998 17.0002 4.24998V4.24998C20.1298 4.24998 22.6668 6.78703 22.6668 9.91665L22.6668 11.3333" stroke="#2F2F2F" stroke-width="2" stroke-linecap="round"/>
<path d="M21.25 19.8333V17" stroke="#2F2F2F" stroke-width="2" stroke-linecap="round"/>
<path d="M12.75 19.8333V17" stroke="#2F2F2F" stroke-width="2" stroke-linecap="round"/>
<path d="M5.6665 15.3333C5.6665 13.4477 5.6665 12.5049 6.25229 11.9191C6.83808 11.3333 7.78089 11.3333 9.6665 11.3333H24.3332C26.2188 11.3333 27.1616 11.3333 27.7474 11.9191C28.3332 12.5049 28.3332 13.4477 28.3332 15.3333V21.75C28.3332 25.5212 28.3332 27.4068 27.1616 28.5784C25.99 29.75 24.1044 29.75 20.3332 29.75H13.6665C9.89527 29.75 8.00965 29.75 6.83808 28.5784C5.6665 27.4068 5.6665 25.5212 5.6665 21.75V15.3333Z" stroke="#2F2F2F" stroke-width="2"/>
</svg>
