<svg width="62" height="12" viewBox="0 0 62 12" fill="none" xmlns="http://www.w3.org/2000/svg">
<path d="M6 0L7.34708 4.1459H11.7063L8.17963 6.7082L9.52671 10.8541L6 8.2918L2.47329 10.8541L3.82037 6.7082L0.293661 4.1459H4.65292L6 0Z" fill="#2F2F2F"/>
<path d="M20 0L21.3471 4.1459H25.7063L22.1796 6.7082L23.5267 10.8541L20 8.2918L16.4733 10.8541L17.8204 6.7082L14.2937 4.1459H18.6529L20 0Z" fill="#2F2F2F"/>
<path d="M32 0L33.3471 4.1459H37.7063L34.1796 6.7082L35.5267 10.8541L32 8.2918L28.4733 10.8541L29.8204 6.7082L26.2937 4.1459H30.6529L32 0Z" fill="#2F2F2F"/>
<path d="M44 0L45.3471 4.1459H49.7063L46.1796 6.7082L47.5267 10.8541L44 8.2918L40.4733 10.8541L41.8204 6.7082L38.2937 4.1459H42.6529L44 0Z" fill="#2F2F2F"/>
<path d="M56 0L57.3471 4.1459H61.7063L58.1796 6.7082L59.5267 10.8541L56 8.2918L52.4733 10.8541L53.8204 6.7082L50.2937 4.1459H54.6529L56 0Z" fill="#2F2F2F"/>
</svg>
